<!-- Makitra asset. Original drawing; style inspired by Anna Riabchenko's 'Ukrainian food and cuisine illustration' (Behance). Non-commercial use. -->
<svg xmlns="http://www.w3.org/2000/svg" viewBox="0 0 72 92" role="img" aria-label="Red onion"><title>Red onion</title><polygon fill="#573D5A" points="36,4 40,16 52,26 66,46 62,70 48,84 24,84 10,70 6,46 20,26 32,16"/><path fill="none" stroke="#FBF3DF" stroke-width="1.8" d="M36 18L24 44L28 82M36 18L36 84M36 18L48 44L44 82M36 18L14 48L18 72M36 18L58 48L54 72"/><path fill="none" stroke="#241A26" stroke-width="2" d="M28 84l-3 6M36 84v7M44 84l3 6"/></svg>
